<svg width="50" height="50" viewBox="0 0 50 50" fill="none" xmlns="http://www.w3.org/2000/svg">
<circle cx="25" cy="25" r="25" fill="black"/>
<path d="M27.8059 30.6935L27.7597 29.945L27.8059 30.6935ZM22.3327 20.8236L22.2762 21.5715C22.4795 21.5869 22.6803 21.5188 22.8323 21.383C22.9844 21.2471 23.0746 21.0553 23.0822 20.8515L22.3327 20.8236ZM31.5254 27.3708L32.264 27.5007L31.5254 27.3708ZM27.7597 29.945C26.1685 30.043 24.5344 30.2333 22.9356 30.0478C21.3752 29.8668 19.933 29.3318 18.7594 28.0181L17.6408 29.0174C19.1263 30.6803 20.9523 31.3278 22.7627 31.5378C24.5347 31.7434 26.3739 31.5332 27.852 31.4421L27.7597 29.945ZM18.7594 28.0181C17.6168 26.739 17.3858 25.0261 17.9646 23.705C18.5225 22.4315 19.8968 21.3918 22.2762 21.5715L22.3892 20.0758C19.4577 19.8544 17.4361 21.1733 16.5907 23.103C15.7661 24.9851 16.1242 27.3198 17.6408 29.0174L18.7594 28.0181ZM27.852 31.4421C28.3848 31.4093 28.9662 31.3718 29.4961 31.2642C30.0257 31.1567 30.5862 30.9645 31.0342 30.5642L30.0349 29.4456C29.8709 29.5921 29.6086 29.7108 29.1976 29.7942C28.7869 29.8776 28.3101 29.911 27.7597 29.945L27.852 31.4421ZM32.264 27.5007C32.5206 26.0422 32.936 24.2382 32.9307 22.4544C32.9254 20.6318 32.4871 18.7446 31.0016 17.0817L29.8829 18.081C31.0566 19.3948 31.4261 20.8879 31.4307 22.4588C31.4355 24.0683 31.0629 25.6707 30.7867 27.2409L32.264 27.5007ZM31.0016 17.0817C29.4851 15.3841 27.2054 14.766 25.2426 15.374C23.2301 15.9973 21.6924 17.858 21.5832 20.7958L23.0822 20.8515C23.1708 18.467 24.3584 17.2182 25.6864 16.8068C27.0641 16.3801 28.7403 16.802 29.8829 18.081L31.0016 17.0817ZM30.7867 27.2409C30.6912 27.7839 30.6044 28.254 30.4754 28.6527C30.3464 29.0517 30.199 29.299 30.0349 29.4456L31.0342 30.5642C31.4823 30.1639 31.7363 29.6285 31.9026 29.1144C32.069 28.6 32.1716 28.0264 32.264 27.5007L30.7867 27.2409Z" fill="white"/>
</svg>
