<svg width="69" height="29" viewBox="0 0 69 29" fill="none" xmlns="http://www.w3.org/2000/svg">
<path d="M0.397017 22V0.181818H3.68892V19.1662H13.5753V22H0.397017ZM23.9677 22.3303C22.4336 22.3303 21.0948 21.9787 19.9513 21.2756C18.8079 20.5724 17.9201 19.5888 17.288 18.3246C16.6559 17.0604 16.3398 15.5831 16.3398 13.8928C16.3398 12.1953 16.6559 10.7109 17.288 9.43963C17.9201 8.16832 18.8079 7.18111 19.9513 6.47798C21.0948 5.77486 22.4336 5.4233 23.9677 5.4233C25.5018 5.4233 26.8406 5.77486 27.984 6.47798C29.1275 7.18111 30.0153 8.16832 30.6474 9.43963C31.2795 10.7109 31.5955 12.1953 31.5955 13.8928C31.5955 15.5831 31.2795 17.0604 30.6474 18.3246C30.0153 19.5888 29.1275 20.5724 27.984 21.2756C26.8406 21.9787 25.5018 22.3303 23.9677 22.3303ZM23.9783 19.6562C24.9727 19.6562 25.7965 19.3935 26.4499 18.8679C27.1033 18.3423 27.5863 17.6428 27.8988 16.7692C28.2184 15.8956 28.3782 14.9332 28.3782 13.8821C28.3782 12.8381 28.2184 11.8793 27.8988 11.0057C27.5863 10.125 27.1033 9.41832 26.4499 8.88565C25.7965 8.35298 24.9727 8.08665 23.9783 8.08665C22.9769 8.08665 22.146 8.35298 21.4854 8.88565C20.832 9.41832 20.3455 10.125 20.0259 11.0057C19.7134 11.8793 19.5572 12.8381 19.5572 13.8821C19.5572 14.9332 19.7134 15.8956 20.0259 16.7692C20.3455 17.6428 20.832 18.3423 21.4854 18.8679C22.146 19.3935 22.9769 19.6562 23.9783 19.6562ZM42.0119 28.4773C40.7122 28.4773 39.5936 28.3068 38.6561 27.9659C37.7257 27.625 36.9657 27.174 36.3762 26.6129C35.7868 26.0518 35.3464 25.4375 35.0552 24.7699L37.7931 23.6406C37.9849 23.9531 38.2406 24.2834 38.5602 24.6314C38.8869 24.9865 39.3272 25.2884 39.8812 25.5369C40.4423 25.7855 41.1632 25.9098 42.0439 25.9098C43.2512 25.9098 44.2491 25.6151 45.0375 25.0256C45.8258 24.4432 46.22 23.5128 46.22 22.2344V19.017H46.0176C45.8258 19.3651 45.5488 19.7521 45.1866 20.1783C44.8315 20.6044 44.3414 20.9737 43.7164 21.2862C43.0914 21.5987 42.2782 21.755 41.2768 21.755C39.9842 21.755 38.8194 21.4531 37.7825 20.8494C36.7527 20.2386 35.9359 19.3402 35.3322 18.1541C34.7356 16.9609 34.4373 15.4943 34.4373 13.7543C34.4373 12.0142 34.7321 10.5227 35.3216 9.27983C35.9181 8.03693 36.7349 7.08523 37.7718 6.42472C38.8088 5.7571 39.9842 5.4233 41.2981 5.4233C42.3137 5.4233 43.1341 5.59375 43.7591 5.93466C44.3841 6.26847 44.8706 6.65909 45.2186 7.10653C45.5737 7.55398 45.8471 7.94815 46.0389 8.28906H46.2733V5.63636H49.3947V22.3622C49.3947 23.7685 49.068 24.9226 48.4146 25.8246C47.7612 26.7266 46.877 27.3942 45.7619 27.8274C44.6539 28.2607 43.4039 28.4773 42.0119 28.4773ZM41.9799 19.1129C42.8961 19.1129 43.6703 18.8999 44.3024 18.4737C44.9416 18.0405 45.4245 17.4226 45.7512 16.62C46.085 15.8104 46.252 14.8409 46.252 13.7116C46.252 12.6108 46.0886 11.6413 45.7619 10.8033C45.4352 9.9652 44.9558 9.31179 44.3237 8.84304C43.6916 8.36719 42.9103 8.12926 41.9799 8.12926C41.0211 8.12926 40.2221 8.37784 39.5829 8.875C38.9437 9.36506 38.4608 10.0327 38.1341 10.8778C37.8145 11.723 37.6547 12.6676 37.6547 13.7116C37.6547 14.7841 37.818 15.7251 38.1447 16.5348C38.4714 17.3445 38.9544 17.9766 39.5936 18.4311C40.2399 18.8857 41.0353 19.1129 41.9799 19.1129ZM60.5595 22.3303C59.0254 22.3303 57.6866 21.9787 56.5431 21.2756C55.3997 20.5724 54.5119 19.5888 53.8798 18.3246C53.2477 17.0604 52.9316 15.5831 52.9316 13.8928C52.9316 12.1953 53.2477 10.7109 53.8798 9.43963C54.5119 8.16832 55.3997 7.18111 56.5431 6.47798C57.6866 5.77486 59.0254 5.4233 60.5595 5.4233C62.0936 5.4233 63.4324 5.77486 64.5758 6.47798C65.7193 7.18111 66.6071 8.16832 67.2392 9.43963C67.8713 10.7109 68.1873 12.1953 68.1873 13.8928C68.1873 15.5831 67.8713 17.0604 67.2392 18.3246C66.6071 19.5888 65.7193 20.5724 64.5758 21.2756C63.4324 21.9787 62.0936 22.3303 60.5595 22.3303ZM60.5701 19.6562C61.5645 19.6562 62.3883 19.3935 63.0417 18.8679C63.6951 18.3423 64.1781 17.6428 64.4906 16.7692C64.8102 15.8956 64.97 14.9332 64.97 13.8821C64.97 12.8381 64.8102 11.8793 64.4906 11.0057C64.1781 10.125 63.6951 9.41832 63.0417 8.88565C62.3883 8.35298 61.5645 8.08665 60.5701 8.08665C59.5687 8.08665 58.7377 8.35298 58.0772 8.88565C57.4238 9.41832 56.9373 10.125 56.6177 11.0057C56.3052 11.8793 56.149 12.8381 56.149 13.8821C56.149 14.9332 56.3052 15.8956 56.6177 16.7692C56.9373 17.6428 57.4238 18.3423 58.0772 18.8679C58.7377 19.3935 59.5687 19.6562 60.5701 19.6562Z" fill="white"/>
</svg>
